<svg data-v-0dd9719b="" version="1.0" xmlns="http://www.w3.org/2000/svg" xmlns:xlink="http://www.w3.org/1999/xlink" width="100%" height="100%" viewBox="0 0 340.000000 250.000000" preserveAspectRatio="xMidYMid meet" color-interpolation-filters="sRGB" style="margin: auto;"> <rect data-v-0dd9719b="" x="0" y="0" width="100%" height="100%" fill="#ffffff" fill-opacity="1" class="background"></rect> <rect data-v-0dd9719b="" x="0" y="0" width="100%" height="100%" fill="url(#watermark)" fill-opacity="1" class="watermarklayer"></rect> <g data-v-0dd9719b="" fill="#333" class="icon-text-wrapper icon-svg-group iconsvg" transform="translate(72.50500488289103,97.49945068359375)"><g class="iconsvg-imagesvg" transform="translate(0,0)"><g><rect fill="#333" fill-opacity="0" stroke-width="2" x="0" y="0" width="55" height="55.00110002200044" class="image-rect"></rect> <svg x="0" y="0" width="55" height="55.00110002200044" filtersec="colorsb3774419067" class="image-svg-svg primary" style="overflow: visible;"><svg xmlns="http://www.w3.org/2000/svg" viewBox="-0.0019585678819566965 0.0002686096995603293 163.05958557128906 163.06222534179688"><title>36</title><path d="M130.42 32.48a91.37 91.37 0 0 1-59.82 34c-22.55 3-33.09-7.69-30-28.18 4.14-27.72 37.76-38.23 77-29.87A81.57 81.57 0 0 0 .84 93.3a82.71 82.71 0 0 0 45.64 12.87 84.74 84.74 0 0 0 83.94-73.69" fill="#e37315"></path><path d="M130.42 32.48a91.37 91.37 0 0 1-59.82 34c-22.55 3-33.09-7.69-30-28.18 4.14-27.72 37.76-38.23 77-29.87a81.17 81.17 0 0 0-65-3.08c-16.6 8-25 21.43-27.85 34.92C17.08 77.08 43 93.57 77.1 83.86c19.23-5.47 40-20.46 53.32-51.38" fill="#efefeb" fill-rule="evenodd" opacity=".05"></path><path d="M136.67 36.75A91.56 91.56 0 0 1 46.48 113a90.92 90.92 0 0 1-43.93-11.18A82 82 0 0 0 27.94 143c17.24 4.35 42.35 5.1 64.39-5.54a84.75 84.75 0 0 0 44.34-100.7" fill="#016737" fill-rule="evenodd"></path><path d="M136.67 36.75A91.56 91.56 0 0 1 46.48 113a90.92 90.92 0 0 1-43.93-11.18A82 82 0 0 0 27.94 143c17.24 4.35 42.35 5.1 64.39-5.54a84.75 84.75 0 0 0 44.34-100.7" fill="#016737"></path><path d="M136.67 36.75A91.56 91.56 0 0 1 46.48 113a90.92 90.92 0 0 1-43.93-11.18 81.83 81.83 0 0 0 8.38 20.48 83.88 83.88 0 0 0 2.66 4.3c43.15 12.15 117.41-5.8 123.08-89.85" fill="#efefeb" fill-rule="evenodd" opacity=".05"></path><path d="M139.1 23.79a91.55 91.55 0 0 1-99.87 127.45A81.54 81.54 0 0 0 139.1 23.79" fill="#039"></path></svg></svg> <!----></g></g> <g transform="translate(62,6.729297637939453)"><g data-gra="path-name" fill-rule="" class="tp-name iconsvg-namesvg" transform="translate(0,0)"><g transform="scale(1)"><g><path d="M5.83-26.52L9.24-18.26 6.75-18.26 9.24-12.18 4.18-12.18 0.77-20.43 3.26-20.43 0.77-26.52 5.83-26.52ZM0.77 0.07L4.18-10.45 9.24-10.45 5.83 0.07 0.77 0.07ZM10.64-26.52L14.82-26.52 28.02-26.52 32.2-26.52 32.2-23.33 32.2-22.15 32.2-19.18 32.2-18.92Q32.2-18.08 31.89-17.35 31.58-16.61 31.06-16.06 30.55-15.51 29.85-15.2 29.16-14.89 28.35-14.89L28.35-14.89 10.64-14.89 10.64-16.76 10.64-18.08 10.64-19.18 10.64-22.15 10.64-23.33 10.64-26.52ZM14.82-18.08L26.92-18.08Q27.36-18.08 27.69-18.39 28.02-18.7 28.02-19.18L28.02-19.18 14.82-19.18 14.82-18.08ZM28.02-23.33L14.82-23.33 14.82-22.15 28.02-22.15 28.02-23.33ZM32.2-9.79L32.2-3.23 32.97-3.23 32.97-0.04 9.61-0.04 9.61-3.23 10.31-3.23 10.31-10.64 10.31-12.76 10.31-13.83 28.17-13.83Q29.01-13.83 29.74-13.5 30.48-13.17 31.03-12.62 31.58-12.07 31.89-11.33 32.2-10.6 32.2-9.79L32.2-9.79ZM27.36-3.23L27.36-9.5Q27.36-9.98 27.03-10.31 26.7-10.64 26.22-10.64L26.22-10.64 25.93-10.64 25.93-3.23 27.36-3.23ZM21.68-3.23L21.68-10.64 20.57-10.64 20.57-3.23 21.68-3.23ZM15.04-10.64L15.04-3.23 16.21-3.23 16.21-10.64 15.04-10.64ZM51.42-0.7L51.42-25.78 55.6-25.78 55.6-0.7 51.42-0.7ZM34.51-6.27L36.02-20.91 39.79-20.91 38.25-6.27 34.51-6.27ZM49.95-20.91L50.94-6.38 47.16-6.38 46.17-20.91 49.95-20.91ZM60.84-20.91L61.83-6.38 58.06-6.38 57.07-20.91 60.84-20.91ZM62.09-26.33L66.68-26.33 66.68-0.95 62.09-0.95 62.09-26.33ZM40.38-9.02L40.38-26.33 44.96-26.33 44.96-9.02 42.98-0.11 38.4-0.11 40.38-9.02ZM100.31-26.41L100.31-18.34Q100.31-17.6 100.03-16.98 99.76-16.36 99.3-15.9 98.84-15.44 98.2-15.17 97.56-14.89 96.86-14.89L96.86-14.89 68.4-14.89 68.4-26.41 100.31-26.41ZM95.65-23.18L73.02-23.18 73.02-21.9 95.65-21.9 95.65-23.18ZM73.02-18.08L95.1-18.08Q95.32-18.08 95.48-18.25 95.65-18.41 95.65-18.67L95.65-18.67 95.65-19.4 73.02-19.4 73.02-18.08ZM69.39 0L69.39-13.94 99.28-13.94 99.28-3.45Q99.28-2.71 99.01-2.09 98.73-1.47 98.27-1.01 97.81-0.55 97.17-0.28 96.53 0 95.83 0L95.83 0 69.39 0ZM74.05-3.19L94.07-3.19Q94.66-3.19 94.66-3.78L94.66-3.78 94.66-4.4 74.05-4.4 74.05-3.19ZM74.05-6.56L94.66-6.56 94.66-7.52 74.05-7.52 74.05-6.56ZM94.66-10.75L74.05-10.75 74.05-9.68 94.66-9.68 94.66-10.75ZM102.43-12.29L102.43-15.44 133.76-15.44 133.76-12.29 115.09-12.29 113.4-10.09 131.22-10.09 131.22-8.29 131.22-2.97Q131.22-1.83 130.42-1.03 129.61-0.22 128.47-0.22L128.47-0.22 112.92-0.22 115.05-3.81 125.36-3.81Q125.69-3.81 125.91-4.05 126.13-4.29 126.13-4.62L126.13-4.62 126.13-6.89 110.98-6.89 105.63-6.89 109.73-12.29 102.43-12.29ZM104.34-23.11L104.34-26.22 131.92-26.22 131.92-26.15 131.92-22.26 131.92-19.99Q131.92-18.85 131.13-18.06 130.34-17.27 129.21-17.27L129.21-17.27 109.29-17.27 104.34-17.27 104.34-20.87 104.34-22.26 104.34-23.11ZM109.44-23.07L109.44-20.46 126.05-20.46Q126.38-20.46 126.6-20.68 126.82-20.91 126.82-21.24L126.82-21.24 126.82-23.07 109.44-23.07Z" transform="translate(-0.7699999809265137, 26.520000457763672)"></path></g> <!----> <!----> <!----> <!----> <!----> <!----> <!----></g></g> <g data-gra="path-slogan" fill-rule="" class="tp-slogan iconsvg-slogansvg" fill="#333" transform="translate(7.714996337890625,33.59000015258789)"><rect width="0"></rect> <rect x="120.55999755859375" width="2.42999267578125"></rect> <g transform="translate(0,0)"><g transform="scale(1)"><path d="M5.67-7.13L5.63-7.13L3.66 0L2.44 0L0.19-8.58L1.41-8.58L3.05-1.59L3.09-1.59L5.02-8.58L6.28-8.58L8.20-1.59L8.25-1.59L9.84-8.58L11.11-8.58L8.86 0L7.64 0L5.67-7.13ZM13.50-1.03L18.66-1.03L18.66 0L12.33 0L12.33-8.58L18.56-8.58L18.56-7.59L13.50-7.59L13.50-4.92L18.19-4.92L18.19-3.89L13.50-3.89L13.50-1.03ZM21.56-8.58L25.88-1.64L25.88-8.58L27-8.58L27 0L25.69 0L21.33-6.94L21.28-6.94L21.28 0L20.16 0L20.16-8.58L21.56-8.58ZM29.63-1.03L34.92-1.03L34.92 0L28.17 0L28.17-0.94L33.42-7.59L28.55-7.59L28.55-8.58L34.92-8.58L34.92-7.59L29.63-1.03ZM37.22-5.06L41.72-5.06L41.72-8.58L42.89-8.58L42.89 0L41.72 0L41.72-3.98L37.22-3.98L37.22 0L36.05 0L36.05-8.58L37.22-8.58L37.22-5.06ZM51.47-4.27L51.47-4.27Q51.28-7.64 48.47-7.83L48.47-7.83Q45.61-7.69 45.47-4.27L45.47-4.27Q45.61-0.94 48.47-0.80L48.47-0.80Q51.28-0.98 51.47-4.27ZM52.64-4.27L52.64-4.27Q52.36 0 48.47 0.14L48.47 0.14Q44.53 0 44.25-4.27L44.25-4.27Q44.48-8.72 48.47-8.81L48.47-8.81Q52.36-8.67 52.64-4.27ZM59.67-3.19L59.67-8.58L60.84-8.58L60.84-3.05Q60.70 0.05 57.33 0.14L57.33 0.14Q54.19 0.05 54.05-2.86L54.05-2.86L54.05-8.58L55.22-8.58L55.22-3.19Q55.27-0.84 57.38-0.80L57.38-0.80Q59.67-0.84 59.67-3.19L59.67-3.19ZM74.20-8.58L74.20 0L73.08 0L73.08-5.06Q73.08-5.77 73.08-7.22L73.08-7.22L70.64 0L69.47 0L67.08-7.22L67.03-7.22Q67.03-6.70 67.08-5.67L67.08-5.67Q67.08-5.16 67.08-5.06L67.08-5.06L67.08 0L65.91 0L65.91-8.58L67.59-8.58L70.08-1.31L72.52-8.58L74.20-8.58ZM81.56 0L80.72-2.48L77.25-2.48L76.36 0L75.19 0L78.42-8.58L79.73-8.58L82.83 0L81.56 0ZM78.98-7.31L77.63-3.52L80.30-3.52L79.03-7.31L78.98-7.31ZM90.66-4.27L90.66-4.27Q90.47-7.64 87.66-7.83L87.66-7.83Q84.80-7.69 84.66-4.27L84.66-4.27Q84.80-0.94 87.66-0.80L87.66-0.80Q90.47-0.98 90.66-4.27ZM91.83-4.27L91.83-4.27Q91.55 0 87.66 0.14L87.66 0.14Q83.72 0 83.44-4.27L83.44-4.27Q83.67-8.72 87.66-8.81L87.66-8.81Q91.55-8.67 91.83-4.27ZM94.36-5.06L98.86-5.06L98.86-8.58L100.03-8.58L100.03 0L98.86 0L98.86-3.98L94.36-3.98L94.36 0L93.19 0L93.19-8.58L94.36-8.58L94.36-5.06ZM107.48 0L106.64-2.48L103.17-2.48L102.28 0L101.11 0L104.34-8.58L105.66-8.58L108.75 0L107.48 0ZM104.91-7.31L103.55-3.52L106.22-3.52L104.95-7.31L104.91-7.31ZM116.58-4.27L116.58-4.27Q116.39-7.64 113.58-7.83L113.58-7.83Q110.72-7.69 110.58-4.27L110.58-4.27Q110.72-0.94 113.58-0.80L113.58-0.80Q116.39-0.98 116.58-4.27ZM117.75-4.27L117.75-4.27Q117.47 0 113.58 0.14L113.58 0.14Q109.64 0 109.36-4.27L109.36-4.27Q109.59-8.72 113.58-8.81L113.58-8.81Q117.47-8.67 117.75-4.27Z" transform="translate(-0.1875, 8.8125)"></path></g></g></g></g></g><defs v-gra="od"></defs></svg>